<svg width="23" height="23" viewBox="0 0 23 23" fill="none" xmlns="http://www.w3.org/2000/svg">
<rect width="23" height="23" rx="3" fill="white"/>
<path d="M11.9999 11.9998H17.0449C17.9662 11.9998 18.689 12.2433 19.2134 12.7302C19.7377 13.2096 19.9999 13.865 19.9999 14.6964C19.9999 15.5279 19.7377 16.1871 19.2134 16.674C18.689 17.1534 17.9662 17.3931 17.0449 17.3931H13.8988V19.9998H11.9999V11.9998ZM13.8988 15.7863H16.9213C17.2958 15.7863 17.5842 15.6927 17.7864 15.5054C17.9962 15.3182 18.101 15.0485 18.101 14.6964C18.101 14.3444 17.9962 14.0747 17.7864 13.8875C17.5767 13.7002 17.2883 13.6066 16.9213 13.6066H13.8988V15.7863Z" fill="#1E1E1E"/>
<path d="M7.30416 16.9783V15.559H10.9999V19.8278H9.67036L9.44501 18.817C8.90416 19.6056 8.03656 19.9998 6.84219 19.9998C5.67787 19.9998 4.74642 19.6342 4.04783 18.903C3.34923 18.1862 2.99994 17.2185 2.99994 15.9998C2.99994 14.7668 3.36426 13.7919 4.0929 13.0751C4.81402 12.3582 5.80557 11.9998 7.06754 11.9998C8.11168 11.9998 8.97928 12.2471 9.67036 12.7418C10.369 13.2435 10.7783 13.9138 10.8985 14.7525H8.94924C8.83656 14.3797 8.61872 14.0894 8.29571 13.8815C7.97271 13.6737 7.56708 13.5697 7.07881 13.5697C6.42529 13.5697 5.91074 13.7848 5.53515 14.2149C5.16708 14.645 4.98304 15.24 4.98304 15.9998C4.98304 16.7597 5.17459 17.3547 5.55769 17.7848C5.9483 18.2149 6.48538 18.4299 7.16895 18.4299C7.66473 18.4299 8.08914 18.2973 8.44219 18.0321C8.80276 17.7597 9.01684 17.4084 9.08445 16.9783H7.30416Z" fill="#1E1E1E"/>
<path d="M16.4961 6.40431L17.4379 2.99982H19.9999V10.9998H18.3695V8.6515C18.3695 7.16086 18.3898 5.87248 18.4303 4.78633C18.302 5.33315 18.14 5.93989 17.9442 6.60656L16.6986 10.9998H15.3012L14.0556 6.60656C13.9071 6.07472 13.7484 5.47173 13.5797 4.79757C13.6134 6.056 13.6303 7.34064 13.6303 8.6515V10.9998H11.9999V2.99982H14.5619L15.5138 6.43802C15.6421 6.92491 15.8075 7.58783 16.01 8.42678C16.1721 7.71517 16.3341 7.04102 16.4961 6.40431Z" fill="#1E1E1E"/>
<path d="M2.99994 3L6.56091 3C7.99181 3 9.08937 3.35581 9.8536 4.06742C10.6178 4.77154 10.9999 5.74907 10.9999 7C10.9999 8.25094 10.6178 9.23221 9.8536 9.94382C9.08937 10.6479 7.99181 11 6.56091 11L2.99994 11L2.99994 3ZM5.06091 9.39326L6.52433 9.39326C7.2723 9.39326 7.84547 9.19476 8.24384 8.79775C8.65034 8.39326 8.8536 7.79401 8.8536 7C8.8536 6.20599 8.65034 5.61049 8.24384 5.21348C7.84547 4.80899 7.2723 4.60674 6.52433 4.60674L5.06091 4.60674L5.06091 9.39326Z" fill="#1E1E1E"/>
<rect x="18" y="18" width="2" height="2" rx="1" fill="#1E1E1E"/>
</svg>
